# xmcd
#
# Track frame offsets: 
#        150
#        19888
#        36195
#        58997
#        77214
#        94726
#        114283
#        126924
#        143619
#        162172
#        183161
#        204135
#
# Disc length: 2992 seconds
#
# Revision: 0
# Processed by: cddbd v1.5.2PL0 Copyright (c) Steve Scherf et al.
# Submitted via: ExactAudioCopy v0.99pb4
#
DISCID=990bae0c
DTITLE=The Audreys - When the Flood Comes
DYEAR=2008
DGENRE=Bluegrass
TTITLE0=Chelsea Blues
TTITLE1=Head So Heavy
TTITLE2=Paradise City
TTITLE3=Lay Me Down
TTITLE4=Closing Time
TTITLE5=When the Flood Comes
TTITLE6=Anchor
TTITLE7=Sally and the Preacher
TTITLE8=Small Things
TTITLE9=Here He Lies
TTITLE10=Songbird
TTITLE11=More to a Sinner
EXTD=
EXTT0=
EXTT1=
EXTT2=
EXTT3=
EXTT4=
EXTT5=
EXTT6=
EXTT7=
EXTT8=
EXTT9=
EXTT10=
EXTT11=
PLAYORDER=
